<?xml version="1.0" encoding="UTF-8" standalone="no"?>
<svg
   version="1.1"
   id="svg62"
   width="30.666668"
   height="32"
   viewBox="0 0 30.666668 32"
   sodipodi:docname="NewProjet.svg"
   inkscape:version="1.3 (0e150ed, 2023-07-21)"
   inkscape:export-filename="NewProjet.png"
   inkscape:export-xdpi="300"
   inkscape:export-ydpi="300"
   xml:space="preserve"
   xmlns:inkscape="http://www.inkscape.org/namespaces/inkscape"
   xmlns:sodipodi="http://sodipodi.sourceforge.net/DTD/sodipodi-0.dtd"
   xmlns="http://www.w3.org/2000/svg"
   xmlns:svg="http://www.w3.org/2000/svg"
   xmlns:rdf="http://www.w3.org/1999/02/22-rdf-syntax-ns#"
   xmlns:cc="http://creativecommons.org/ns#"
   xmlns:dc="http://purl.org/dc/elements/1.1/"><metadata
     id="metadata68"><rdf:RDF><cc:Work
         rdf:about=""><dc:format>image/svg+xml</dc:format><dc:type
           rdf:resource="http://purl.org/dc/dcmitype/StillImage" /></cc:Work></rdf:RDF></metadata><defs
     id="defs66"><inkscape:perspective
       sodipodi:type="inkscape:persp3d"
       inkscape:vp_x="0 : 16 : 1"
       inkscape:vp_y="-463.29604 : 886.20359 : 0"
       inkscape:vp_z="30.666668 : 16 : 1"
       inkscape:persp3d-origin="15.333334 : 10.666667 : 1"
       id="perspective91" /></defs><sodipodi:namedview
     pagecolor="#ffffff"
     bordercolor="#666666"
     borderopacity="1"
     objecttolerance="10"
     gridtolerance="10"
     guidetolerance="10"
     inkscape:pageopacity="0"
     inkscape:pageshadow="2"
     inkscape:window-width="1920"
     inkscape:window-height="1027"
     id="namedview64"
     showgrid="false"
     inkscape:zoom="10.250102"
     inkscape:cx="18.87786"
     inkscape:cy="14.43888"
     inkscape:window-x="0"
     inkscape:window-y="25"
     inkscape:window-maximized="1"
     inkscape:current-layer="svg62"
     inkscape:document-rotation="0"
     inkscape:showpageshadow="0"
     inkscape:pagecheckerboard="0"
     inkscape:deskcolor="#d1d1d1" /><g
     id="g1"
     transform="matrix(1.0509182,0,0,1.0509182,-1.3616973,33.74049)"><path
       style="fill:#dedede"
       d="m 3.7862383,-20.429819 c 0.01115,-1.638625 0.023169,-1.833286 0.1249907,-2.024459 0.1576732,-0.296035 0.3901083,-0.532764 0.672957,-0.685391 l 0.2417265,-0.130437 H 14.1626 23.499288 l 0.241727,0.130437 c 0.581768,0.313925 0.768179,0.679529 0.803939,1.576757 l 0.0271,0.679856 -9.72199,0.0013 c -9.3156803,0.0013 -9.7320927,0.006 -9.9637168,0.112673 -0.5374639,0.247571 -0.7312764,0.54463 -0.9458977,1.449789 l -0.1665447,0.702398 z m 24.4209757,-0.04532 -0.115121,-0.135971 0.135971,0.115121 c 0.07478,0.06332 0.135971,0.124504 0.135971,0.135971 0,0.04836 -0.04864,0.01266 -0.156821,-0.115121 z m -15.260955,-5.227337 c -0.07517,-0.09585 -0.07303,-0.09799 0.02282,-0.02282 0.100663,0.07895 0.132676,0.128571 0.08294,0.128571 -0.01255,0 -0.06014,-0.04759 -0.105756,-0.105755 z m -0.543884,-0.483453 c -0.07517,-0.09585 -0.07303,-0.09798 0.02282,-0.02282 0.100664,0.07895 0.132676,0.128571 0.08294,0.128571 -0.01255,0 -0.06014,-0.04759 -0.105755,-0.105755 z m -0.543885,-0.483453 c -0.07517,-0.09585 -0.07303,-0.09799 0.02282,-0.02282 0.100664,0.07895 0.132677,0.128571 0.08294,0.128571 -0.01255,0 -0.06014,-0.04759 -0.105755,-0.105755 z m -0.543885,-0.483453 c -0.07517,-0.09585 -0.07303,-0.09799 0.02282,-0.02282 0.100664,0.07895 0.132677,0.128571 0.08294,0.128571 -0.01255,0 -0.06014,-0.04759 -0.105755,-0.105755 z m -0.511702,-0.453237 -0.115122,-0.135972 0.135971,0.115122 c 0.12778,0.108186 0.163483,0.156821 0.115122,0.156821 -0.01147,0 -0.07265,-0.06119 -0.135971,-0.135971 z"
       id="path8"
       sodipodi:nodetypes="ssscccsscccscssccssccsccccsccccsccccsccccssc" /><path
       style="fill:#a8ad98"
       d="m 2.2216104,-9.718311 -0.1151215,-0.1359711 0.1359712,0.1151215 c 0.1277793,0.1081858 0.1634821,0.1568208 0.1151215,0.1568208 -0.011467,0 -0.072654,-0.061187 -0.1359712,-0.1359712 z m 23.8100646,-15.107909 -0.115121,-0.135971 0.135971,0.115121 c 0.07478,0.06332 0.135971,0.124504 0.135971,0.135971 0,0.04836 -0.04864,0.01266 -0.156821,-0.115121 z m -12.871938,-0.664748 -0.115122,-0.135971 0.135971,0.115121 c 0.12778,0.108186 0.163482,0.156821 0.115122,0.156821 -0.01147,0 -0.07265,-0.06119 -0.135971,-0.135971 z m -0.543885,-0.483453 -0.115122,-0.135971 0.135972,0.115121 c 0.127779,0.108186 0.163482,0.156821 0.115121,0.156821 -0.01147,0 -0.07265,-0.06119 -0.135971,-0.135971 z m -0.543885,-0.483453 -0.115121,-0.135972 0.135971,0.115122 c 0.07478,0.06332 0.135971,0.124504 0.135971,0.135971 0,0.04836 -0.04863,0.01266 -0.156821,-0.115121 z m -0.543885,-0.483453 -0.115121,-0.135972 0.135971,0.115122 c 0.127779,0.108186 0.163482,0.156821 0.115122,0.156821 -0.01147,0 -0.07266,-0.06119 -0.135972,-0.135971 z m -0.515635,-0.453238 c -0.07517,-0.09585 -0.07303,-0.09799 0.02282,-0.02282 0.100664,0.07895 0.132677,0.128572 0.08294,0.128572 -0.01255,0 -0.06014,-0.04759 -0.105755,-0.105756 z m -8.7850949,-0.317266 c 0.060159,-0.06648 0.1229769,-0.120863 0.1395956,-0.120863 0.016619,0 -0.019005,0.05439 -0.079164,0.120863 -0.060159,0.06648 -0.1229769,0.120863 -0.1395956,0.120863 -0.016619,0 0.019005,-0.05439 0.079164,-0.120863 z"
       id="path7"
       sodipodi:nodetypes="scssssccssccsscccssccccscscsssccscccscsc" /><path
       style="fill:#fd9e00"
       d="M 2.9219247,-9.3366453 C 2.4925692,-9.4672494 2.0579248,-9.8468625 1.9793663,-10.159864 c -0.043844,-0.174689 2.0475165,-9.613986 2.1950651,-9.907365 0.1315669,-0.261601 0.3740768,-0.505486 0.6514811,-0.655174 l 0.2417266,-0.130437 11.0892049,-0.01707 c 7.856044,-0.01209 11.168493,0.0021 11.361148,0.04885 0.40124,0.09726 0.699884,0.321185 0.90473,0.678373 0.249689,0.435381 0.24031,0.729471 -0.06827,2.14088 l -0.253386,1.158943 -0.276427,-0.138315 c -1.941631,-0.971532 -4.389051,-0.57015 -6.006431,0.985065 -1.697511,1.632267 -2.102097,4.226764 -0.986686,6.3273408 l 0.206345,0.3885946 -8.982234,-0.00519 C 7.1154003,-9.2882327 3.0052334,-9.311304 2.9219247,-9.3366453 Z M 4.1611645,-22.8773 c 0.060159,-0.06647 0.1229769,-0.120863 0.1395956,-0.120863 0.016619,0 -0.019005,0.05439 -0.079164,0.120863 -0.060159,0.06648 -0.1229769,0.120863 -0.1395956,0.120863 -0.016619,0 0.019005,-0.05439 0.079164,-0.120863 z"
       id="path6" /><path
       style="fill:#f37b00"
       d="m 1.8756922,-10.459177 c -0.021899,-0.132631 -0.040115,-3.859844 -0.040481,-8.282695 -7.487e-4,-9.052882 -0.029605,-8.473469 0.4456705,-8.948744 0.4523738,-0.452374 0.443674,-0.451508 4.3363278,-0.431514 3.3635663,0.01728 3.4088225,0.01912 3.6475505,0.148616 0.132949,0.07212 0.901671,0.717981 1.708271,1.435252 l 1.466545,1.304128 h 5.849823 c 6.602422,0 6.290099,-0.02059 6.75597,0.445286 0.401246,0.401246 0.445285,0.639201 0.445285,2.40597 v 1.499822 h -0.961845 -0.961845 l -0.02017,-0.715127 c -0.01899,-0.673385 -0.03084,-0.732377 -0.203061,-1.010633 -0.113179,-0.182866 -0.295652,-0.365218 -0.478714,-0.478397 l -0.295822,-0.182893 H 14.1626 4.7560028 l -0.2958216,0.182893 c -0.1831705,0.113246 -0.3654684,0.295467 -0.478714,0.478513 l -0.1828925,0.29562 -0.031187,2.0294 -0.031187,2.0294 -0.8924256,3.958273 c -0.4908341,2.177049 -0.9004902,3.985206 -0.9103469,4.018125 -0.00986,0.03292 -0.035838,-0.04866 -0.057737,-0.181295 z"
       id="path5" /><path
       style="fill:#9b9e23"
       d="m 20.331398,-10.947088 c 0.0029,-0.0704 0.01722,-0.08472 0.03651,-0.03651 0.01746,0.04362 0.01531,0.09575 -0.0048,0.115827 -0.02008,0.02008 -0.03436,-0.01561 -0.03174,-0.07932 z m -0.06043,-0.302158 c 0.0029,-0.0704 0.01722,-0.08472 0.03651,-0.03651 0.01746,0.04363 0.01531,0.09575 -0.0048,0.115828 -0.02008,0.02008 -0.03436,-0.01561 -0.03174,-0.07932 z m -0.05118,-0.448201 c 0,-0.116331 0.01244,-0.163921 0.02764,-0.105755 0.0152,0.05817 0.0152,0.153345 0,0.21151 -0.0152,0.05817 -0.02764,0.01058 -0.02764,-0.105755 z m 0,-0.966906 c 0,-0.116331 0.01244,-0.163921 0.02764,-0.105756 0.0152,0.05817 0.0152,0.153346 0,0.211511 -0.0152,0.05817 -0.02764,0.01058 -0.02764,-0.105755 z m 0.05118,-0.458273 c 0.0029,-0.0704 0.01722,-0.08472 0.03651,-0.03651 0.01746,0.04362 0.01531,0.09575 -0.0048,0.115827 -0.02008,0.02008 -0.03436,-0.01561 -0.03174,-0.07932 z m 0.06043,-0.302159 c 0.0029,-0.0704 0.01722,-0.08472 0.03651,-0.03651 0.01746,0.04362 0.01531,0.09575 -0.0048,0.115827 -0.02008,0.02008 -0.03436,-0.01561 -0.03174,-0.07932 z m 1.203862,-2.291366 c 0.07806,-0.08309 0.155529,-0.151079 0.172147,-0.151079 0.01662,0 -0.03365,0.06799 -0.111715,0.151079 -0.07806,0.08309 -0.155529,0.151079 -0.172147,0.151079 -0.01662,0 0.03365,-0.06799 0.111715,-0.151079 z m 0.423022,-0.423021 c 0.07806,-0.08309 0.155528,-0.151079 0.172147,-0.151079 0.01662,0 -0.03365,0.06799 -0.111716,0.151079 -0.07806,0.08309 -0.155528,0.151079 -0.172147,0.151079 -0.01662,0 0.03365,-0.06799 0.111716,-0.151079 z m 0.302158,-0.234327 c 0,-0.01255 0.04759,-0.06014 0.105755,-0.105756 0.09585,-0.07517 0.09799,-0.07303 0.02282,0.02282 -0.07895,0.100663 -0.128571,0.132676 -0.128571,0.08294 z m 1.982913,-0.985372 c 0.04362,-0.01746 0.09575,-0.01531 0.115827,0.0048 0.02008,0.02008 -0.01561,0.03436 -0.07932,0.03174 -0.0704,-0.0029 -0.08472,-0.01722 -0.03651,-0.03651 z m 2.477697,0 c 0.04362,-0.01746 0.09575,-0.01531 0.115827,0.0048 0.02008,0.02008 -0.01561,0.03436 -0.07932,0.03174 -0.0704,-0.0029 -0.08472,-0.01722 -0.03651,-0.03651 z m -2.175539,-0.06043 c 0.04362,-0.01746 0.09575,-0.01531 0.115827,0.0048 0.02008,0.02008 -0.01561,0.03436 -0.07932,0.03174 -0.0704,-0.0029 -0.08472,-0.01722 -0.03651,-0.03651 z m 1.873381,0 c 0.04362,-0.01746 0.09575,-0.01531 0.115827,0.0048 0.02008,0.02008 -0.01561,0.03436 -0.07932,0.03174 -0.0704,-0.0029 -0.08472,-0.01722 -0.03651,-0.03651 z m -1.484352,-0.06081 c 0.05817,-0.0152 0.153345,-0.0152 0.21151,0 0.05817,0.0152 0.01058,0.02764 -0.105755,0.02764 -0.116331,0 -0.163921,-0.01244 -0.105755,-0.02764 z m 0.966906,0 c 0.05816,-0.0152 0.153345,-0.0152 0.211511,0 0.05816,0.0152 0.01057,0.02764 -0.105756,0.02764 -0.116331,0 -0.163921,-0.01244 -0.105755,-0.02764 z m 2.718336,-1.952587 c 0,-0.11633 0.01244,-0.16392 0.02764,-0.105755 0.0152,0.05817 0.0152,0.153345 0,0.211511 -0.0152,0.05817 -0.02764,0.01058 -0.02764,-0.105756 z"
       id="path3" /></g><g
     id="g3349"
     transform="matrix(1.0293536,0,0,1.0410772,1.033421,-4.0603581)"
     style="fill:#008500;fill-opacity:1"
     inkscape:label="g3349"><ellipse
       style="opacity:1;fill:#008500;fill-opacity:1;stroke:#008500;stroke-width:2.70564;stroke-linecap:round;stroke-linejoin:round;stroke-miterlimit:4;stroke-dasharray:none;stroke-dashoffset:0;stroke-opacity:1;paint-order:stroke markers fill"
       id="path3306"
       cx="22.750387"
       cy="23.789024"
       rx="4.6471796"
       ry="4.6471777" /><path
       style="fill:none;stroke:#ffffff;stroke-width:2.1812;stroke-linecap:butt;stroke-linejoin:miter;stroke-miterlimit:4;stroke-dasharray:none;stroke-opacity:1"
       d="m 18.604928,23.854557 h 8.281621"
       id="path6054"
       sodipodi:nodetypes="cc" /><path
       style="fill:none;fill-opacity:1;stroke:#ffffff;stroke-width:2.1812;stroke-linecap:butt;stroke-linejoin:miter;stroke-miterlimit:4;stroke-dasharray:none;stroke-opacity:1"
       d="m 22.763821,19.760376 v 8.188362"
       id="path6054-9"
       sodipodi:nodetypes="cc" /></g></svg>
